<svg width="80" height="80" viewBox="0 0 80 80" fill="none" xmlns="http://www.w3.org/2000/svg">
<path d="M51.7998 37.6333L32.9331 18.8C32.6232 18.4876 32.2546 18.2396 31.8484 18.0704C31.4422 17.9011 31.0065 17.814 30.5664 17.814C30.1264 17.814 29.6907 17.9011 29.2845 18.0704C28.8783 18.2396 28.5097 18.4876 28.1998 18.8C27.5789 19.4245 27.2305 20.2694 27.2305 21.15C27.2305 22.0306 27.5789 22.8754 28.1998 23.5L44.6998 40.1667L28.1998 56.6667C27.5789 57.2912 27.2305 58.136 27.2305 59.0167C27.2305 59.8973 27.5789 60.7421 28.1998 61.3667C28.5085 61.6816 28.8766 61.9322 29.2829 62.1038C29.6891 62.2755 30.1254 62.3648 30.5664 62.3667C31.0075 62.3648 31.4437 62.2755 31.85 62.1038C32.2562 61.9322 32.6244 61.6816 32.9331 61.3667L51.7998 42.5333C52.1381 42.2212 52.4082 41.8423 52.5928 41.4207C52.7775 40.999 52.8729 40.5437 52.8729 40.0833C52.8729 39.623 52.7775 39.1676 52.5928 38.746C52.4082 38.3243 52.1381 37.9455 51.7998 37.6333Z" fill="#F3CF10"/>
</svg>
