<svg width="111" height="40" viewBox="0 0 111 40" fill="none" xmlns="http://www.w3.org/2000/svg">
<path fill-rule="evenodd" clip-rule="evenodd" d="M20 40C31.0457 40 40 31.0457 40 20C40 8.9543 31.0457 0 20 0C8.9543 0 0 8.9543 0 20C0 31.0457 8.9543 40 20 40ZM20.0001 37.9937C29.9377 37.9937 37.9938 29.9377 37.9938 20C37.9938 10.0623 29.9377 2.00627 20.0001 2.00627C10.0624 2.00627 2.00635 10.0623 2.00635 20C2.00635 29.9377 10.0624 37.9937 20.0001 37.9937Z" fill="#555555"/>
<path fill-rule="evenodd" clip-rule="evenodd" d="M21.2957 20.8141L23.3497 19.1578L22.722 18.3793L13.1094 26.1306L13.7371 26.909L18.091 23.3983L17.4971 22.6876L20.6556 20.0481L21.2957 20.8141Z" fill="#457DB3"/>
<line x1="28.9874" y1="10.5079" x2="32.863" y2="15.3143" stroke="#457DB2"/>
<line x1="24.0457" y1="13.673" x2="28.6283" y2="19.356" stroke="#457DB2"/>
<line x1="27.4554" y1="10.9235" x2="32.0379" y2="16.6065" stroke="#457DB2"/>
<line x1="23.1382" y1="14.8736" x2="26.9188" y2="19.5621" stroke="#457DB2"/>
<line x1="26.3189" y1="11.84" x2="30.9015" y2="17.523" stroke="#457DB2"/>
<line x1="22.5021" y1="16.8576" x2="29.9786" y2="10.8288" stroke="#457DB2"/>
<line x1="25.1822" y1="12.7565" x2="29.7647" y2="18.4395" stroke="#457DB2"/>
<line x1="24.7211" y1="19.9594" x2="32.9614" y2="13.3147" stroke="#457DB2"/>
<line x1="23.4349" y1="18.4848" x2="31.6753" y2="11.8401" stroke="#457DB2"/>
<path fill-rule="evenodd" clip-rule="evenodd" d="M23.106 19.1197C24.6878 21.0813 28.0692 20.9789 30.6586 18.8909C33.248 16.803 34.0648 13.5201 32.483 11.5585C30.9012 9.59682 27.5198 9.69922 24.9304 11.7872C22.3411 13.8752 21.5243 17.158 23.106 19.1197ZM24.0436 18.3635C25.3091 19.9328 28.0142 19.8509 30.0857 18.1805C32.1572 16.5102 32.8106 13.8839 31.5452 12.3146C30.2797 10.7452 27.5746 10.8272 25.5031 12.4975C23.4316 14.1679 22.7782 16.7942 24.0436 18.3635Z" fill="#457DB3"/>
<line x1="10.5267" y1="28.6037" x2="13.2321" y2="26.4222" stroke="#457DB2" stroke-width="2" stroke-linecap="round"/>
<g filter="url(#filter0_d_253_67)">
<path fill-rule="evenodd" clip-rule="evenodd" d="M8.86676 19.7824L22.5814 25.7079L10.1836 17.4287C10.3637 17.9425 10.3406 18.4767 10.071 18.9312C9.81644 19.3606 9.38342 19.6491 8.86676 19.7824Z" fill="#FD6262"/>
</g>
<g filter="url(#filter1_d_253_67)">
<path fill-rule="evenodd" clip-rule="evenodd" d="M15.259 12.4068L23.4772 24.7395L17.5332 10.9338C17.4195 11.4923 17.1292 11.9662 16.6775 12.2429C16.2508 12.5043 15.7497 12.5473 15.259 12.4068Z" fill="#FD6262"/>
</g>
<g filter="url(#filter2_d_253_67)">
<path fill-rule="evenodd" clip-rule="evenodd" d="M10.3368 16.8446L22.6224 25.1443L12.2198 14.5109C12.2762 15.087 12.1245 15.6558 11.7457 16.1044C11.3878 16.5281 10.8854 16.7755 10.3368 16.8446Z" fill="#FD6262"/>
</g>
<g filter="url(#filter3_d_253_67)">
<path fill-rule="evenodd" clip-rule="evenodd" d="M12.528 14.2952L22.9242 24.7981L14.662 12.3794C14.6291 12.9536 14.4001 13.4803 13.974 13.8452C13.5713 14.19 13.0582 14.3342 12.528 14.2952Z" fill="#FD6262"/>
</g>
<path fill-rule="evenodd" clip-rule="evenodd" d="M20.2591 17.3903C19.878 17.4784 19.4571 17.6486 19.0186 17.8934C18.3924 18.2429 17.7542 18.7312 17.1734 19.3053C16.5925 19.8793 16.0913 20.517 15.7243 21.149C15.452 21.618 15.2612 22.0705 15.1619 22.4797L15.4885 22.5754C15.6071 21.7151 16.2477 20.5744 17.2624 19.5519C18.3106 18.4956 19.4884 17.8371 20.3574 17.7431L20.2591 17.3903Z" fill="white"/>
<g filter="url(#filter4_d_253_67)">
<path fill-rule="evenodd" clip-rule="evenodd" d="M20.5792 25.5916L21.2764 26.2837C22.0602 27.0618 23.3255 27.0565 24.1027 26.2717C24.8798 25.4869 24.8744 24.22 24.0906 23.4418L23.3935 22.7497L20.5792 25.5916Z" fill="#D7D7D7"/>
<rect width="3.99953" height="0.733299" transform="matrix(0.703644 -0.710553 0.709666 0.704538 20.0588 25.075)" fill="black"/>
</g>
<path d="M70.56 7C71.04 6.89333 71.4533 6.86667 71.8 6.92C72.1467 6.97333 72.5067 7.16 72.88 7.48C73.2 7.85333 73.5467 8.73333 73.92 10.12C74.1867 11.08 74.36 12.28 74.44 13.72C74.52 15.16 74.5067 16.3067 74.4 17.16C74.24 18.0667 74.0267 18.8667 73.76 19.56C73.4933 20.2533 73.2267 20.7067 72.96 20.92C72.4267 21.3467 72.0533 21.5867 71.84 21.64C71.68 21.7467 71.56 21.8 71.48 21.8C71.4 21.8 71.2267 21.8 70.96 21.8C70.6933 21.8 70.32 21.72 69.84 21.56C69.36 21.3467 69.0133 21.1333 68.8 20.92C68.32 20.6 67.92 20.1467 67.6 19.56C67.3867 19.08 67.24 18.6933 67.16 18.4C67.08 18.1067 67.1467 17.7733 67.36 17.4C67.4667 16.8667 67.7067 16.44 68.08 16.12C68.4533 15.8 68.9067 15.6133 69.44 15.56C70.24 15.3467 70.8533 15.4267 71.28 15.8C71.3333 15.96 71.4 16.08 71.48 16.16C71.56 16.24 71.6 16.3867 71.6 16.6C71.6 17.5067 71.3333 18.28 70.8 18.92C70.48 19.08 70.24 19.2133 70.08 19.32C69.92 19.3733 69.7733 19.48 69.64 19.64C69.5067 19.8 69.44 19.88 69.44 19.88C69.44 19.9333 69.5733 20.04 69.84 20.2C70.32 20.4667 70.7467 20.5467 71.12 20.44C71.4933 20.3867 71.8933 20.04 72.32 19.4C72.5867 19.08 72.8267 18.4933 73.04 17.64C73.2533 16.7867 73.4133 15.9333 73.52 15.08C73.5733 13.9067 73.4533 12.52 73.16 10.92C72.8667 9.32 72.4533 8.30667 71.92 7.88C71.8667 7.61333 71.68 7.48 71.36 7.48C70.88 7.37333 70.4267 7.4 70 7.56C68.6667 7.93333 67.2533 8.92 65.76 10.52L65.12 11L65.28 11.4C65.3333 12.52 65.4133 14.0667 65.52 16.04C65.5733 17.8 65.6533 18.8133 65.76 19.08C65.76 19.2933 65.7333 19.6533 65.68 20.16C65.6267 20.6667 65.5733 21 65.52 21.16C65.4133 21.32 65.2933 21.4267 65.16 21.48C65.0267 21.5333 64.8533 21.5067 64.64 21.4C64.4267 21.2933 64.2267 21.24 64.04 21.24C63.8533 21.24 63.64 21.1867 63.4 21.08C63.16 20.9733 62.8 20.84 62.32 20.68C62.1067 20.6267 61.92 20.5733 61.76 20.52C61.6 20.4667 61.44 20.3333 61.28 20.12C61.0667 19.8 60.88 19.5467 60.72 19.36C60.56 19.1733 60.4533 18.84 60.4 18.36C60.4 18.04 60.4 17.64 60.4 17.16C60.56 16.3067 60.8133 15.5867 61.16 15C61.5067 14.4133 62.2133 13.5867 63.28 12.52L64 11.8V10.52C64 9.02667 63.8933 8.28 63.68 8.28C63.5733 8.28 63.3467 8.44 63 8.76C62.6533 9.08 62.3467 9.34667 62.08 9.56C62.0267 9.72 61.7467 10.0533 61.24 10.56C60.7333 11.0667 60.4533 11.32 60.4 11.32C60.1333 11.3733 59.7333 11.4 59.2 11.4C59.04 11.3467 58.84 11.2267 58.6 11.04C58.36 10.8533 58.2 10.6 58.12 10.28C58.04 9.96 58.0267 9.78667 58.08 9.76C58.1333 9.73333 58.24 9.82667 58.4 10.04L58.72 10.12L59.04 10.04C59.5733 9.82667 60.3733 9.4 61.44 8.76C62.3467 8.17333 63.04 7.88 63.52 7.88C64 7.88 64.32 7.96 64.48 8.12C64.64 8.33333 64.8 8.89333 64.96 9.8C65.0667 10.1733 65.1467 10.36 65.2 10.36C65.2533 10.36 65.44 10.2533 65.76 10.04C66.4 9.4 67.0133 8.86667 67.6 8.44C67.8667 8.22667 68.1067 8.09333 68.32 8.04C68.5333 7.82667 68.88 7.61333 69.36 7.4C69.84 7.18667 70.24 7.05333 70.56 7ZM64 14.12C64 13.2133 63.96 12.7333 63.88 12.68C63.8 12.6267 63.5867 12.8 63.24 13.2C62.8933 13.6 62.64 13.9067 62.48 14.12C62.0533 14.8667 61.7467 15.5467 61.56 16.16C61.3733 16.7733 61.36 17.3467 61.52 17.88C61.7333 18.3067 61.92 18.6267 62.08 18.84C62.1867 18.8933 62.5867 18.9733 63.28 19.08C63.6 19.08 63.76 19.0267 63.76 18.92C63.9733 18.76 64.0533 17.16 64 14.12ZM70.32 15.88C70.16 15.8267 69.92 15.8 69.6 15.8C68.8 15.8 68.2667 16.0933 68 16.68C67.84 16.84 67.7867 17.0533 67.84 17.32C67.84 17.6933 67.9333 18.0533 68.12 18.4C68.3067 18.7467 68.5333 19.0533 68.8 19.32L68.88 19.4L69.44 19.08C69.7067 18.7067 69.92 18.3067 70.08 17.88C70.4 17.3467 70.5733 16.92 70.6 16.6C70.6267 16.28 70.5333 16.04 70.32 15.88ZM83.2883 7.56C83.2883 7.50667 83.3149 7.49333 83.3683 7.52C83.4216 7.54667 83.6083 7.61333 83.9283 7.72C84.4616 7.77333 85.0216 8.09333 85.6083 8.68C86.0349 8.94667 86.2483 9.24 86.2483 9.56C86.2483 9.72 86.0349 9.85333 85.6083 9.96C85.4483 9.96 85.2616 10.0133 85.0483 10.12C84.6216 10.4933 84.2483 10.7067 83.9283 10.76C83.7149 10.8133 83.5816 10.8133 83.5283 10.76C83.4749 10.7067 83.5549 10.5733 83.7683 10.36C83.9816 10.2 84.1683 10 84.3283 9.76C84.4883 9.52 84.5683 9.32 84.5683 9.16C84.5683 9.16 84.4083 9.02667 84.0883 8.76C83.3949 8.06667 83.1283 7.66667 83.2883 7.56ZM90.5683 6.52C90.6216 6.46667 90.8083 6.49333 91.1283 6.6C91.8749 7.02667 92.3549 7.77333 92.5683 8.84C92.7816 9.69333 92.8883 10.76 92.8883 12.04C92.8883 12.9467 92.9016 13.44 92.9283 13.52C92.9549 13.6 93.1016 13.64 93.3683 13.64C93.7416 13.6933 93.9283 13.8267 93.9283 14.04C93.9283 14.04 93.8349 14.1867 93.6483 14.48C93.4616 14.7733 93.2883 14.9733 93.1283 15.08C93.0216 15.1867 92.9416 15.2933 92.8883 15.4C92.8349 15.5067 92.8083 15.7733 92.8083 16.2C92.6483 17.0533 92.5416 17.8267 92.4883 18.52C92.4349 18.7333 92.4349 18.8667 92.4883 18.92C92.5416 18.9733 92.7549 19 93.1283 19C93.5016 18.8933 93.8216 18.9067 94.0883 19.04C94.3549 19.1733 94.5283 19.28 94.6083 19.36C94.6883 19.44 94.8083 19.4933 94.9683 19.52C95.1283 19.5467 95.2616 19.6667 95.3683 19.88C95.4216 20.2533 95.4349 20.4933 95.4083 20.6C95.3816 20.7067 95.2616 20.76 95.0483 20.76C94.7816 20.76 94.5816 20.7333 94.4483 20.68C94.3149 20.6267 94.2216 20.6 94.1683 20.6C93.7416 20.5467 93.4749 20.6267 93.3683 20.84C93.2616 20.8933 92.9949 21.0267 92.5683 21.24L92.1683 21.48H91.1283C90.3816 21.48 89.9416 21.4533 89.8083 21.4C89.6749 21.3467 89.5016 21.32 89.2883 21.32C89.0749 21.2667 88.8749 21.1333 88.6883 20.92C88.5016 20.7067 88.4083 20.5733 88.4083 20.52C88.4083 20.4667 88.4883 20.44 88.6483 20.44C88.9683 20.3333 89.4083 20.1733 89.9683 19.96C90.5283 19.7467 90.8349 19.5867 90.8883 19.48C90.9416 19.3733 90.9949 19.0267 91.0483 18.44C91.1016 17.8533 91.1283 17.3467 91.1283 16.92V16.04H90.2483C89.7683 16.04 89.2883 15.88 88.8083 15.56C88.6483 15.4533 88.4749 15.3467 88.2883 15.24C88.1016 15.1333 88.0083 15.08 88.0083 15.08C88.0083 15.0267 88.0083 15 88.0083 15C87.9549 15 87.6083 15.32 86.9683 15.96C86.3283 16.6 86.0083 16.9467 86.0083 17C86.0083 17 85.8883 17.1333 85.6483 17.4C85.4083 17.6667 85.1816 17.9333 84.9683 18.2C84.7549 18.4667 84.6349 18.7067 84.6083 18.92C84.5816 19.1333 84.5683 19.6667 84.5683 20.52C84.5683 21.32 84.5149 21.7467 84.4083 21.8C84.4083 21.8533 84.3549 21.92 84.2483 22C84.1416 22.08 84.0349 22.12 83.9283 22.12C83.9283 22.12 83.8483 22.04 83.6883 21.88C83.4216 21.6133 83.3149 21.1867 83.3683 20.6C83.3683 20.3867 83.3416 20.2533 83.2883 20.2C83.2883 20.2 83.1549 20.3067 82.8883 20.52C82.6216 20.7333 82.4616 20.9467 82.4083 21.16C82.4083 21.2133 82.3416 21.28 82.2083 21.36C82.0749 21.44 81.9283 21.4267 81.7683 21.32C81.7149 21.32 81.6083 21.2 81.4483 20.96C81.2883 20.72 81.2083 20.5467 81.2083 20.44C81.1549 20.0133 81.3149 19.3733 81.6883 18.52C82.1149 17.88 82.5149 17.1333 82.8883 16.28C83.2616 15.64 83.4883 15.2533 83.5683 15.12C83.6483 14.9867 83.6883 14.8667 83.6883 14.76C83.5283 14.6 83.2083 14.76 82.7283 15.24C82.0883 15.7733 81.5549 16.1467 81.1283 16.36C80.8616 16.4667 80.6883 16.5333 80.6083 16.56C80.5283 16.5867 80.3549 16.6 80.0883 16.6C79.6083 16.6 79.2616 16.52 79.0483 16.36C78.8349 16.3067 78.6216 16.16 78.4083 15.92C78.1949 15.68 78.1149 15.5067 78.1683 15.4C78.1683 15.3467 78.2616 15.3333 78.4483 15.36C78.6349 15.3867 78.8349 15.4 79.0483 15.4C79.2616 15.4 79.8749 15.1867 80.8883 14.76C81.8483 14.28 82.5149 14 82.8883 13.92C83.2616 13.84 83.6083 13.8667 83.9283 14C84.2483 14.1333 84.4616 14.3067 84.5683 14.52C84.6216 14.68 84.7283 14.84 84.8883 15C85.2616 15.2133 85.4216 15.4267 85.3683 15.64C85.3683 15.8 85.2616 15.9067 85.0483 15.96C84.8349 16.12 84.7016 16.36 84.6483 16.68C84.6483 17.1067 84.6749 17.32 84.7283 17.32C84.8349 17.32 85.2083 17 85.8483 16.36C87.1816 15.24 87.8749 14.68 87.9283 14.68C87.9816 14.68 88.0083 14.7333 88.0083 14.84C88.0083 14.9467 88.0883 15 88.2483 15C88.4616 15 88.9416 14.88 89.6883 14.64C90.4349 14.4 90.8616 14.2533 90.9683 14.2C90.9683 14.0933 90.9949 13.5333 91.0483 12.52C91.1016 11.5067 91.1283 10.52 91.1283 9.56C91.1283 8.81333 91.1016 8.28 91.0483 7.96C90.9949 7.64 90.9149 7.32 90.8083 7C90.6483 6.68 90.5683 6.52 90.5683 6.52Z" fill="black"/>
<path d="M55.584 29.5742C55.5059 29.6836 55.3848 29.8379 55.2207 30.0371C55.1426 30.1348 55.0234 30.2852 54.8633 30.4883C54.5859 30.8398 54.3691 31.1055 54.2129 31.2852C54.3965 31.2656 54.6152 31.2246 54.8691 31.1621L55.8066 30.9277C56.127 30.8496 56.4414 30.8105 56.75 30.8105C57.2852 30.8105 57.7266 30.9688 58.0742 31.2852C58.4258 31.5977 58.6016 31.9941 58.6016 32.4746C58.6016 33.1621 58.3086 33.7656 57.7227 34.2852C57.1406 34.8047 56.4629 35.0645 55.6895 35.0645C55.123 35.0645 54.6191 34.9277 54.1777 34.6543C53.7363 34.377 53.1699 33.8457 52.4785 33.0605L52.3555 33.1719C50.9102 34.4414 49.584 35.0762 48.377 35.0762C47.3848 35.0762 46.5645 34.7656 45.916 34.1445C45.2715 33.5195 44.9492 32.7305 44.9492 31.7773C44.9492 30.7305 45.3496 29.9062 46.1504 29.3047C46.7793 28.8281 47.4766 28.5898 48.2422 28.5898C48.8789 28.5898 49.4824 28.8145 50.0527 29.2637C50.4121 29.5488 51.0469 30.2422 51.957 31.3438C52.2539 31.7031 52.5117 32.0078 52.7305 32.2578L52.8652 32.4043C53.0801 32.2129 53.2441 32.0488 53.3574 31.9121C52.791 31.5449 52.5078 31.0273 52.5078 30.3594C52.5078 29.9531 52.7148 29.75 53.1289 29.75C52.875 30.0391 52.748 30.3027 52.748 30.541C52.748 30.7676 52.8398 30.9551 53.0234 31.1035C53.207 31.248 53.4414 31.3203 53.7266 31.3203C53.7578 31.3203 53.8164 31.3164 53.9023 31.3086L53.9375 31.2676C54.1328 31.0488 54.4453 30.6699 54.875 30.1309C55.3047 29.5918 55.584 29.2285 55.7129 29.041L55.9121 28.748L56.0176 28.6016C56.0332 28.582 56.0586 28.5449 56.0938 28.4902L56.2988 28.5547C56.2246 28.6836 56.1875 28.8379 56.1875 29.0176C56.1875 29.2832 56.3027 29.541 56.5332 29.791C56.7676 30.0371 57.0098 30.1602 57.2598 30.1602C57.5176 30.1602 57.7383 30.0449 57.9219 29.8145C58.1055 29.5801 58.1973 29.2988 58.1973 28.9707C58.1973 28.4941 58.0293 28.1289 57.6934 27.875C57.3574 27.6172 56.875 27.4883 56.2461 27.4883C55.5664 27.4883 54.1895 27.6191 52.1152 27.8809C51.1777 28.002 50.4824 28.0625 50.0293 28.0625C49.623 28.0625 49.3281 27.998 49.1445 27.8691L49.1797 27.752C49.3125 27.3105 49.4258 26.8887 49.5195 26.4863L49.7363 26.5332C49.6973 26.7012 49.6777 26.8379 49.6777 26.9434C49.6777 27.209 49.9473 27.3418 50.4863 27.3418C50.8184 27.3418 51.4648 27.2773 52.4258 27.1484C54.3242 26.8984 55.6172 26.7734 56.3047 26.7734C57.0391 26.7734 57.6094 26.9277 58.0156 27.2363C58.4258 27.5449 58.6309 27.9766 58.6309 28.5312C58.6309 29.4375 58.207 30.0879 57.3594 30.4824C57.0391 30.6309 56.8203 30.7051 56.7031 30.7051C56.4609 30.7051 56.0879 30.3281 55.584 29.5742ZM53.0117 32.5801C53.3203 32.9277 53.709 33.3164 54.1777 33.7461C54.8574 34.375 55.5078 34.6895 56.1289 34.6895C56.6953 34.6895 57.1875 34.4961 57.6055 34.1094C58.0234 33.7227 58.2324 33.2676 58.2324 32.7441C58.2324 32.3652 58.1074 32.0586 57.8574 31.8242C57.6074 31.5898 57.2832 31.4727 56.8848 31.4727C56.5762 31.4727 55.9902 31.5801 55.127 31.7949C54.5996 31.9277 54.1895 31.9941 53.8965 31.9941C53.7988 31.9941 53.7012 31.9844 53.6035 31.9648C53.5723 31.9961 53.5527 32.0176 53.5449 32.0293L53.3223 32.2637L53.0703 32.5156C53.0625 32.5234 53.043 32.5449 53.0117 32.5801ZM52.332 32.9023L52.2793 32.8438C52.0488 32.582 51.752 32.2285 51.3887 31.7832C50.502 30.6855 49.8027 29.9434 49.291 29.5566C48.7793 29.166 48.2461 28.9707 47.6914 28.9707C47.0273 28.9707 46.4688 29.2188 46.0156 29.7148C45.5625 30.207 45.3359 30.8184 45.3359 31.5488C45.3359 32.3887 45.6797 33.1172 46.3672 33.7344C47.0586 34.3477 47.875 34.6543 48.8164 34.6543C49.9023 34.6543 51.0742 34.0703 52.332 32.9023ZM62.8555 34.1035L62.9609 34.2559C62.5508 34.5645 61.9902 34.8066 61.2793 34.9824C61.2988 34.5879 61.5312 33.9082 61.9766 32.9434C61.4727 33.5371 60.9531 34.0293 60.418 34.4199C59.8867 34.8105 59.4648 35.0059 59.1523 35.0059C58.8789 35.0059 58.7422 34.832 58.7422 34.4844C58.7422 33.8945 59.0059 33.2578 59.5332 32.5742C60.0605 31.8867 60.7227 31.3223 61.5195 30.8809C62.418 30.377 63.3125 30.125 64.2031 30.125C64.3281 30.125 64.3906 30.1719 64.3906 30.2656C64.3906 30.3438 64.332 30.4922 64.2148 30.7109C63.9492 30.6641 63.6914 30.6406 63.4414 30.6406C62.25 30.6406 61.2246 31.1035 60.3652 32.0293C59.7324 32.709 59.416 33.3828 59.416 34.0508C59.416 34.3633 59.5312 34.5195 59.7617 34.5195C59.957 34.5195 60.2383 34.3516 60.6055 34.0156C60.9727 33.6758 61.3008 33.2832 61.5898 32.8379C61.9883 32.2207 62.2598 31.5801 62.4043 30.916C62.5723 31.0176 62.6562 31.2051 62.6562 31.4785C62.6562 31.8574 62.4648 32.293 62.082 32.7852C62.2695 32.7695 62.502 32.7148 62.7793 32.6211L62.7324 32.7207C62.3613 33.5527 62.1758 34.0391 62.1758 34.1797C62.1758 34.293 62.2285 34.3457 62.334 34.3379C62.4316 34.3301 62.6055 34.252 62.8555 34.1035ZM69.5293 26.9668C69.5137 27.2246 69.3301 27.7969 68.9785 28.6836L68.5449 29.7734L68.375 30.1953C68.6094 30.2891 68.7363 30.4805 68.7559 30.7695C68.5918 30.7148 68.4043 30.6816 68.1934 30.6699L68.1523 30.7754L67.3965 32.6973C67.0449 33.5918 66.8691 34.1016 66.8691 34.2266C66.8691 34.3359 66.9219 34.3906 67.0273 34.3906C67.1367 34.3906 67.3164 34.3145 67.5664 34.1621C67.5781 34.1543 67.5977 34.1426 67.625 34.127L67.7363 34.2676C67.3145 34.5605 66.7246 34.8145 65.9668 35.0293L66.0137 34.8359C66.1387 34.3672 66.3438 33.7812 66.6289 33.0781C66.7188 32.8633 66.8008 32.6621 66.875 32.4746L67.5312 30.7637L67.5898 30.6348C67.168 30.6348 66.7129 30.748 66.2246 30.9746C65.7363 31.1973 65.3086 31.4883 64.9414 31.8477C64.2539 32.5312 63.9102 33.2344 63.9102 33.957C63.9102 34.2891 64.0312 34.4551 64.2734 34.4551C64.5117 34.4551 64.8086 34.291 65.1641 33.9629C65.5234 33.6348 65.8398 33.2363 66.1133 32.7676C66.3711 32.3223 66.582 31.8242 66.7461 31.2734C66.8125 31.418 66.8457 31.5723 66.8457 31.7363C66.8457 32.0605 66.7051 32.4375 66.4238 32.8672C66.1465 33.2969 65.7734 33.7129 65.3047 34.1152C64.6055 34.709 64.0605 35.0059 63.6699 35.0059C63.373 35.0059 63.2246 34.8203 63.2246 34.4492C63.2246 34.125 63.3281 33.752 63.5352 33.3301C63.7461 32.9082 64.0254 32.5059 64.373 32.123C65.3457 31.0566 66.4766 30.4141 67.7656 30.1953L67.9238 29.791L68.3457 28.6836C68.4707 28.3633 68.5352 28.1445 68.5391 28.0273C68.5469 27.8594 68.4629 27.7754 68.2871 27.7754C68.1855 27.7754 68.0723 27.8008 67.9473 27.8516L67.877 27.6758L67.9707 27.6406C68.6074 27.4023 69.127 27.1777 69.5293 26.9668ZM73.9238 34.1211L74.0176 34.2734C73.6035 34.5703 73.1113 34.8125 72.541 35C72.6035 34.1484 73.0039 32.9648 73.7422 31.4492L73.9121 31.0859C73.9434 31.0273 73.959 30.9785 73.959 30.9395C73.959 30.8457 73.918 30.7988 73.8359 30.7988C73.668 30.7988 73.3359 31.0488 72.8398 31.5488C72.4805 31.9082 72.1406 32.3672 71.8203 32.9258C71.5039 33.4844 71.2461 34.0664 71.0469 34.6719C70.8164 34.7305 70.541 34.8398 70.2207 35L70.2852 34.8359L70.6367 33.9746C70.8945 33.3379 71.1289 32.709 71.3398 32.0879C71.5508 31.4668 71.6562 31.0898 71.6562 30.957C71.6562 30.8438 71.6035 30.7871 71.498 30.7871C71.3652 30.7871 71.1445 30.9453 70.8359 31.2617C70.5273 31.5742 70.2402 31.9336 69.9746 32.3398C69.5137 33.0508 69.1133 33.8379 68.7734 34.7012C68.7227 34.7168 68.6934 34.7266 68.6855 34.7305L68.375 34.8418C68.25 34.8848 68.1211 34.9336 67.9883 34.9883C68.082 34.7891 68.2656 34.3594 68.5391 33.6992L68.9961 32.5977C69.3398 31.7617 69.5176 31.2402 69.5293 31.0332C69.5371 30.8926 69.4805 30.8223 69.3594 30.8223C69.2812 30.8223 69.1641 30.8574 69.0078 30.9277L68.9375 30.7402C69.2773 30.6074 69.7148 30.375 70.25 30.043L70.3789 29.9609C70.3906 30.0508 70.3965 30.127 70.3965 30.1895C70.3965 30.5215 70.1934 31.1816 69.7871 32.1699C70.873 30.7832 71.7148 30.0898 72.3125 30.0898C72.4883 30.0898 72.5762 30.1836 72.5762 30.3711C72.5762 30.6523 72.3789 31.2773 71.9844 32.2461C72.4336 31.6562 72.9199 31.1484 73.4434 30.7227C73.9707 30.2969 74.375 30.084 74.6562 30.084C74.8203 30.084 74.9023 30.166 74.9023 30.3301C74.9023 30.4434 74.7539 30.8164 74.457 31.4492C73.7422 32.9844 73.3848 33.875 73.3848 34.1211C73.3848 34.2266 73.4355 34.2793 73.5371 34.2793C73.6113 34.2793 73.7402 34.2266 73.9238 34.1211ZM77.0234 29.9902V30.0547C77.0234 30.4219 76.7812 31.1484 76.2969 32.2344L75.8633 33.2188C75.6328 33.7461 75.5137 34.0684 75.5059 34.1855C75.502 34.3066 75.5684 34.3633 75.7051 34.3555C75.7832 34.3516 75.9121 34.3105 76.0918 34.2324L76.168 34.4023C75.5547 34.6953 75.0645 34.9043 74.6973 35.0293C74.7168 34.6621 74.7754 34.3242 74.873 34.0156C74.9746 33.7031 75.1914 33.1875 75.5234 32.4688C75.9453 31.5469 76.1602 31.0078 76.168 30.8516C76.1758 30.7305 76.125 30.6699 76.0156 30.6699C75.9648 30.6699 75.8984 30.6836 75.8164 30.7109L75.5703 30.7988C75.5547 30.8027 75.5176 30.8164 75.459 30.8398L75.4004 30.6523L75.5234 30.6113C75.957 30.4512 76.3984 30.2715 76.8477 30.0723L77.0234 29.9902ZM77.3633 28.4902C77.543 28.4902 77.6328 28.5801 77.6328 28.7598C77.6328 28.8613 77.5918 28.9531 77.5098 29.0352C77.4316 29.1172 77.3418 29.1582 77.2402 29.1582C77.0566 29.1582 76.9648 29.0684 76.9648 28.8887C76.9648 28.7871 77.0039 28.6953 77.082 28.6133C77.1641 28.5312 77.2578 28.4902 77.3633 28.4902ZM80.7324 34.1504L80.8262 34.3086C80.3574 34.6445 79.8027 34.8789 79.1621 35.0117C79.2441 34.3672 79.623 33.3887 80.2988 32.0762L80.6797 31.3496C80.8086 31.0996 80.873 30.9395 80.873 30.8691C80.873 30.7637 80.8301 30.7109 80.7441 30.7109C80.623 30.7109 80.3926 30.8477 80.0527 31.1211C79.7168 31.3945 79.3887 31.7109 79.0684 32.0703C78.4043 32.8125 77.8477 33.7031 77.3984 34.7422C77.2148 34.7852 76.9551 34.8789 76.6191 35.0234C76.9785 34.2891 77.3398 33.4648 77.7031 32.5508C78.0703 31.6328 78.2539 31.0898 78.2539 30.9219C78.2539 30.7812 78.1973 30.7109 78.084 30.7109C78.0254 30.7109 77.8984 30.7402 77.7031 30.7988C77.6875 30.8027 77.666 30.8086 77.6387 30.8164L77.6035 30.6289C78.1504 30.4727 78.6445 30.2969 79.0859 30.1016L79.1621 30.0664C79.1699 30.1172 79.1738 30.1523 79.1738 30.1719C79.1738 30.5195 78.918 31.2598 78.4062 32.3926L78.3242 32.5684L78.4238 32.457C79.0645 31.7266 79.6543 31.1523 80.1934 30.7344C80.7363 30.3125 81.1602 30.1016 81.4648 30.1016C81.6562 30.1016 81.752 30.1992 81.752 30.3945C81.752 30.5977 81.4961 31.1973 80.9844 32.1934C80.3711 33.3809 80.0645 34.0488 80.0645 34.1973C80.0645 34.3105 80.1172 34.3672 80.2227 34.3672C80.3398 34.3672 80.5 34.3027 80.7031 34.1738L80.7324 34.1504ZM84.7227 30.125L84.6465 30.3008H83.8203L83.7734 30.4004C83.6992 30.5566 83.498 31.0137 83.1699 31.7715C83.0371 32.0801 82.8496 32.5059 82.6074 33.0488C82.3223 33.6816 82.1797 34.082 82.1797 34.25C82.1797 34.418 82.2656 34.502 82.4375 34.502C82.6445 34.502 82.9277 34.3809 83.2871 34.1387L83.3809 34.291C83.1465 34.4707 82.8789 34.623 82.5781 34.748C82.2773 34.873 82.0293 34.9355 81.834 34.9355C81.541 34.9355 81.3945 34.8203 81.3945 34.5898C81.3945 34.4258 81.5586 33.9648 81.8867 33.207L82.4961 31.8184C82.8359 31.0332 83.0332 30.5723 83.0879 30.4355L83.1465 30.3008H82.3789L82.4609 30.125H82.5371C82.873 30.125 83.0977 30.0723 83.2109 29.9668C83.3281 29.8613 83.4863 29.5645 83.6855 29.0762C83.7441 29.0801 83.7832 29.082 83.8027 29.082C83.9902 29.082 84.1758 29.0586 84.3594 29.0117C84.3164 29.125 84.2402 29.3105 84.1309 29.5684L83.9551 29.9902L83.8965 30.125H84.7227ZM88.127 30.6758C87.9199 30.6562 87.748 30.6465 87.6113 30.6465C86.584 30.6465 85.7969 31.041 85.25 31.8301C85.0352 32.1426 84.8535 32.502 84.7051 32.9082C84.5566 33.3105 84.4824 33.6484 84.4824 33.9219C84.4824 34.1133 84.5371 34.2715 84.6465 34.3965C84.7598 34.5176 84.9023 34.5781 85.0742 34.5781C85.4805 34.5781 85.9297 34.252 86.4219 33.5996C86.9141 32.9473 87.1602 32.3496 87.1602 31.8066C87.1602 31.6855 87.127 31.584 87.0605 31.502C86.998 31.416 86.9219 31.373 86.832 31.373C86.5195 31.373 86.2207 31.6855 85.9355 32.3105C85.916 32.2324 85.9062 32.1641 85.9062 32.1055C85.9062 31.8633 86.0566 31.6094 86.3574 31.3438C86.6582 31.0781 86.9434 30.9453 87.2129 30.9453C87.3926 30.9453 87.5449 31.0195 87.6699 31.168C87.7949 31.3125 87.8574 31.4902 87.8574 31.7012C87.8574 32.4082 87.4062 33.1582 86.5039 33.9512C85.7305 34.6387 85.0879 34.9824 84.5762 34.9824C84.3535 34.9824 84.168 34.9023 84.0195 34.7422C83.875 34.582 83.8027 34.3809 83.8027 34.1387C83.8027 33.6035 83.9883 33.0449 84.3594 32.4629C84.7344 31.877 85.2266 31.373 85.8359 30.9512C86.1719 30.7207 86.5371 30.5312 86.9316 30.3828C87.3301 30.2344 87.668 30.1602 87.9453 30.1602C88.1172 30.1602 88.2031 30.2363 88.2031 30.3887C88.2031 30.4473 88.1777 30.543 88.127 30.6758ZM91.7715 34.1504L91.8652 34.3086C91.3965 34.6445 90.8418 34.8789 90.2012 35.0117C90.2832 34.3672 90.6621 33.3887 91.3379 32.0762L91.7188 31.3496C91.8477 31.0996 91.9121 30.9395 91.9121 30.8691C91.9121 30.7637 91.8691 30.7109 91.7832 30.7109C91.6621 30.7109 91.4316 30.8477 91.0918 31.1211C90.7559 31.3945 90.4277 31.7109 90.1074 32.0703C89.4434 32.8125 88.8867 33.7031 88.4375 34.7422C88.2539 34.7852 87.9941 34.8789 87.6582 35.0234C88.0176 34.2891 88.3789 33.4648 88.7422 32.5508C89.1094 31.6328 89.293 31.0898 89.293 30.9219C89.293 30.7812 89.2363 30.7109 89.123 30.7109C89.0645 30.7109 88.9375 30.7402 88.7422 30.7988C88.7266 30.8027 88.7051 30.8086 88.6777 30.8164L88.6426 30.6289C89.1895 30.4727 89.6836 30.2969 90.125 30.1016L90.2012 30.0664C90.209 30.1172 90.2129 30.1523 90.2129 30.1719C90.2129 30.5195 89.957 31.2598 89.4453 32.3926L89.3633 32.5684L89.4629 32.457C90.1035 31.7266 90.6934 31.1523 91.2324 30.7344C91.7754 30.3125 92.1992 30.1016 92.5039 30.1016C92.6953 30.1016 92.791 30.1992 92.791 30.3945C92.791 30.5977 92.5352 31.1973 92.0234 32.1934C91.4102 33.3809 91.1035 34.0488 91.1035 34.1973C91.1035 34.3105 91.1562 34.3672 91.2617 34.3672C91.3789 34.3672 91.5391 34.3027 91.7422 34.1738L91.7715 34.1504ZM99.7461 30.0723L98.9199 31.6133H98.7148L98.7617 31.5137C98.8984 31.2168 98.9668 31.0117 98.9668 30.8984C98.9668 30.7578 98.8184 30.6875 98.5215 30.6875C98.0645 30.6875 97.6699 30.8809 97.3379 31.2676C97.0215 31.6348 96.75 32.0742 96.5234 32.5859C96.3008 33.0938 96.1895 33.5215 96.1895 33.8691C96.1895 34.2988 96.3867 34.5137 96.7812 34.5137C97.1172 34.5137 97.4629 34.3691 97.8184 34.0801C98.1738 33.791 98.4727 33.4102 98.7148 32.9375L98.8672 32.6445C98.875 32.6289 98.8926 32.5957 98.9199 32.5449C98.9629 32.6191 98.9844 32.6953 98.9844 32.7734C98.9844 33.1094 98.7344 33.5195 98.2344 34.0039C97.4961 34.7148 96.8223 35.0703 96.2129 35.0703C95.6934 35.0703 95.4336 34.7773 95.4336 34.1914C95.4336 33.6875 95.6035 33.1445 95.9434 32.5625C96.2832 31.9805 96.7344 31.457 97.2969 30.9922C98.0508 30.3711 98.7871 30.0605 99.5059 30.0605C99.5527 30.0605 99.6328 30.0645 99.7461 30.0723ZM102.488 26.9434C102.488 27.4199 102.172 28.375 101.539 29.8086C100.441 32.3047 99.8828 33.7539 99.8633 34.1562C99.8555 34.332 99.9258 34.416 100.074 34.4082C100.188 34.4043 100.389 34.2891 100.678 34.0625L100.748 34.0098L100.859 34.1621C100.23 34.7129 99.7695 34.9883 99.4766 34.9883C99.2422 34.9883 99.125 34.8242 99.125 34.4961C99.125 34.2422 99.2051 33.8867 99.3652 33.4297C99.5293 32.9727 99.918 32.0098 100.531 30.541L101.088 29.2051C101.424 28.4043 101.592 27.9375 101.592 27.8047C101.592 27.6992 101.531 27.6465 101.41 27.6465C101.367 27.6465 101.264 27.6719 101.1 27.7227C101.08 27.7305 101.051 27.7402 101.012 27.752L100.953 27.582L101.041 27.5469C101.717 27.2891 102.199 27.0879 102.488 26.9434ZM105.846 30.166C105.572 30.6895 105.24 31.4258 104.85 32.375C104.459 33.3242 104.26 33.877 104.252 34.0332C104.248 34.1543 104.314 34.2148 104.451 34.2148C104.557 34.2148 104.711 34.1758 104.914 34.0977L104.99 34.2559C104.705 34.4043 104.234 34.6035 103.578 34.8535L103.42 34.9121C103.521 34.2754 103.717 33.5957 104.006 32.873C103.502 33.5098 103.023 34.0098 102.57 34.373C102.121 34.7324 101.75 34.9121 101.457 34.9121C101.199 34.9121 101.07 34.7773 101.07 34.5078C101.07 34.1836 101.311 33.5176 101.791 32.5098L102.26 31.5254C102.404 31.2207 102.48 31.002 102.488 30.8691C102.496 30.7402 102.43 30.6758 102.289 30.6758C102.227 30.6758 102.117 30.6992 101.961 30.7461L101.914 30.5703L102.008 30.541C102.555 30.3809 103.01 30.2227 103.373 30.0664C103.373 30.3789 103.199 30.8926 102.852 31.6074L102.342 32.6504C101.951 33.4512 101.756 33.9414 101.756 34.1211C101.756 34.2891 101.83 34.373 101.979 34.373C102.357 34.373 102.859 33.9785 103.484 33.1895C104.109 32.3965 104.607 31.5234 104.979 30.5703L105.055 30.3828C105.281 30.3594 105.545 30.2871 105.846 30.166ZM108.857 26.9434C108.811 27.5293 108.275 29.0371 107.252 31.4668L107.146 31.707C107.572 31.25 108.035 30.875 108.535 30.582C109.035 30.2891 109.467 30.1426 109.83 30.1426C110.189 30.1426 110.369 30.332 110.369 30.7109C110.369 31.1406 110.174 31.6406 109.783 32.2109C109.393 32.7812 108.895 33.2969 108.289 33.7578C107.188 34.5859 106.123 35 105.096 35L105.178 34.8125C105.908 33.1172 106.541 31.5859 107.076 30.2188C107.615 28.8516 107.885 28.0859 107.885 27.9219C107.885 27.8047 107.814 27.7461 107.674 27.7461C107.588 27.7461 107.449 27.7812 107.258 27.8516L107.193 27.6699C107.701 27.4863 108.256 27.2441 108.857 26.9434ZM105.975 34.4141C106.08 34.4297 106.16 34.4375 106.215 34.4375C107.078 34.4375 107.85 34.002 108.529 33.1309C108.803 32.7793 109.029 32.4043 109.209 32.0059C109.393 31.6074 109.484 31.2852 109.484 31.0391C109.484 30.7656 109.355 30.6289 109.098 30.6289C108.652 30.6289 108.115 31.0117 107.486 31.7773C106.857 32.5391 106.354 33.418 105.975 34.4141Z" fill="black"/>
<defs>
<filter id="filter0_d_253_67" x="4.8667" y="17.4287" width="21.7146" height="16.2792" filterUnits="userSpaceOnUse" color-interpolation-filters="sRGB">
<feFlood flood-opacity="0" result="BackgroundImageFix"/>
<feColorMatrix in="SourceAlpha" type="matrix" values="0 0 0 0 0 0 0 0 0 0 0 0 0 0 0 0 0 0 127 0" result="hardAlpha"/>
<feOffset dy="4"/>
<feGaussianBlur stdDeviation="2"/>
<feComposite in2="hardAlpha" operator="out"/>
<feColorMatrix type="matrix" values="0 0 0 0 0 0 0 0 0 0 0 0 0 0 0 0 0 0 0.25 0"/>
<feBlend mode="normal" in2="BackgroundImageFix" result="effect1_dropShadow_253_67"/>
<feBlend mode="normal" in="SourceGraphic" in2="effect1_dropShadow_253_67" result="shape"/>
</filter>
<filter id="filter1_d_253_67" x="11.259" y="10.9338" width="16.2183" height="21.8056" filterUnits="userSpaceOnUse" color-interpolation-filters="sRGB">
<feFlood flood-opacity="0" result="BackgroundImageFix"/>
<feColorMatrix in="SourceAlpha" type="matrix" values="0 0 0 0 0 0 0 0 0 0 0 0 0 0 0 0 0 0 127 0" result="hardAlpha"/>
<feOffset dy="4"/>
<feGaussianBlur stdDeviation="2"/>
<feComposite in2="hardAlpha" operator="out"/>
<feColorMatrix type="matrix" values="0 0 0 0 0 0 0 0 0 0 0 0 0 0 0 0 0 0 0.25 0"/>
<feBlend mode="normal" in2="BackgroundImageFix" result="effect1_dropShadow_253_67"/>
<feBlend mode="normal" in="SourceGraphic" in2="effect1_dropShadow_253_67" result="shape"/>
</filter>
<filter id="filter2_d_253_67" x="6.33691" y="14.5109" width="20.2854" height="18.6334" filterUnits="userSpaceOnUse" color-interpolation-filters="sRGB">
<feFlood flood-opacity="0" result="BackgroundImageFix"/>
<feColorMatrix in="SourceAlpha" type="matrix" values="0 0 0 0 0 0 0 0 0 0 0 0 0 0 0 0 0 0 127 0" result="hardAlpha"/>
<feOffset dy="4"/>
<feGaussianBlur stdDeviation="2"/>
<feComposite in2="hardAlpha" operator="out"/>
<feColorMatrix type="matrix" values="0 0 0 0 0 0 0 0 0 0 0 0 0 0 0 0 0 0 0.25 0"/>
<feBlend mode="normal" in2="BackgroundImageFix" result="effect1_dropShadow_253_67"/>
<feBlend mode="normal" in="SourceGraphic" in2="effect1_dropShadow_253_67" result="shape"/>
</filter>
<filter id="filter3_d_253_67" x="8.52808" y="12.3795" width="18.3962" height="20.4187" filterUnits="userSpaceOnUse" color-interpolation-filters="sRGB">
<feFlood flood-opacity="0" result="BackgroundImageFix"/>
<feColorMatrix in="SourceAlpha" type="matrix" values="0 0 0 0 0 0 0 0 0 0 0 0 0 0 0 0 0 0 127 0" result="hardAlpha"/>
<feOffset dy="4"/>
<feGaussianBlur stdDeviation="2"/>
<feComposite in2="hardAlpha" operator="out"/>
<feColorMatrix type="matrix" values="0 0 0 0 0 0 0 0 0 0 0 0 0 0 0 0 0 0 0.25 0"/>
<feBlend mode="normal" in2="BackgroundImageFix" result="effect1_dropShadow_253_67"/>
<feBlend mode="normal" in="SourceGraphic" in2="effect1_dropShadow_253_67" result="shape"/>
</filter>
<filter id="filter4_d_253_67" x="16.0588" y="22.2331" width="12.6233" height="12.6307" filterUnits="userSpaceOnUse" color-interpolation-filters="sRGB">
<feFlood flood-opacity="0" result="BackgroundImageFix"/>
<feColorMatrix in="SourceAlpha" type="matrix" values="0 0 0 0 0 0 0 0 0 0 0 0 0 0 0 0 0 0 127 0" result="hardAlpha"/>
<feOffset dy="4"/>
<feGaussianBlur stdDeviation="2"/>
<feComposite in2="hardAlpha" operator="out"/>
<feColorMatrix type="matrix" values="0 0 0 0 0 0 0 0 0 0 0 0 0 0 0 0 0 0 0.25 0"/>
<feBlend mode="normal" in2="BackgroundImageFix" result="effect1_dropShadow_253_67"/>
<feBlend mode="normal" in="SourceGraphic" in2="effect1_dropShadow_253_67" result="shape"/>
</filter>
</defs>
</svg>
